<mxfile host="app.diagrams.net" agent="Mozilla/5.0 (Windows NT 10.0; Win64; x64) AppleWebKit/537.36 (KHTML, like Gecko) Chrome/126.0.0.0 YaBrowser/24.7.0.0 Safari/537.36" version="26.1.0">
  <diagram id="C5RBs43oDa-KdzZeNtuy" name="Page-1">
    <mxGraphModel dx="1195" dy="639" grid="1" gridSize="10" guides="1" tooltips="1" connect="1" arrows="1" fold="1" page="1" pageScale="1" pageWidth="827" pageHeight="1169" math="0" shadow="0">
      <root>
        <mxCell id="WIyWlLk6GJQsqaUBKTNV-0" />
        <mxCell id="WIyWlLk6GJQsqaUBKTNV-1" parent="WIyWlLk6GJQsqaUBKTNV-0" />
        <mxCell id="UjNVezTkZKRS0Rf-8lEK-25" style="edgeStyle=orthogonalEdgeStyle;rounded=0;orthogonalLoop=1;jettySize=auto;html=1;exitX=0.5;exitY=1;exitDx=0;exitDy=0;entryX=0.5;entryY=0;entryDx=0;entryDy=0;" edge="1" parent="WIyWlLk6GJQsqaUBKTNV-1" source="UjNVezTkZKRS0Rf-8lEK-0" target="UjNVezTkZKRS0Rf-8lEK-2">
          <mxGeometry relative="1" as="geometry" />
        </mxCell>
        <mxCell id="UjNVezTkZKRS0Rf-8lEK-0" value="&lt;pre class=&quot;code-block&quot; data-entity-type=&quot;MessageEntityPre&quot; data-language=&quot;&quot; style=&quot;box-sizing: border-box; font-variant-numeric: normal; font-variant-east-asian: normal; font-variant-alternates: normal; font-variant-position: normal; font-kerning: auto; font-optical-sizing: auto; font-feature-settings: normal; font-variation-settings: normal; font-stretch: normal; font-size: 0.875rem; line-height: 1.25; font-family: var(--font-family-monospace); margin-top: 0px; margin-bottom: 0px; overflow: hidden; --color-scrollbar: var(--color-scrollbar-code); text-wrap: wrap; --color-type: light-dark(#56b6c2, #20727d); --color-keyword: light-dark(#c678dd, #a05db4); --color-class: light-dark(#e06c75, #c8656c); --color-string: light-dark(#98c379, #395e1e); --color-template: light-dark(#d19a66, #8b5b2f); --color-selector: light-dark(#e06c75, #c8656c); --color-function: light-dark(#61aeee, #2a6ca4); --color-comment: light-dark(#5c6370, #9399a4); --color-section: light-dark(#e06c75, #c8656c); --color-variable: light-dark(#d19a66, #8b5b2f); --color-attribute: light-dark(#d19a66, #8b5b2f); --color-link: light-dark(#d19a66, #8b5b2f); --color-tag: light-dark(#e06c75, #c8656c); text-align: start;&quot;&gt;Начало&lt;/pre&gt;" style="rounded=0;whiteSpace=wrap;html=1;" vertex="1" parent="WIyWlLk6GJQsqaUBKTNV-1">
          <mxGeometry x="340" y="10" width="120" height="60" as="geometry" />
        </mxCell>
        <mxCell id="UjNVezTkZKRS0Rf-8lEK-7" style="edgeStyle=orthogonalEdgeStyle;rounded=0;orthogonalLoop=1;jettySize=auto;html=1;exitX=0.5;exitY=1;exitDx=0;exitDy=0;entryX=0.5;entryY=0;entryDx=0;entryDy=0;" edge="1" parent="WIyWlLk6GJQsqaUBKTNV-1" source="UjNVezTkZKRS0Rf-8lEK-1" target="UjNVezTkZKRS0Rf-8lEK-10">
          <mxGeometry relative="1" as="geometry">
            <mxPoint x="400" y="760" as="targetPoint" />
          </mxGeometry>
        </mxCell>
        <mxCell id="UjNVezTkZKRS0Rf-8lEK-9" value="Да" style="edgeLabel;html=1;align=center;verticalAlign=middle;resizable=0;points=[];" vertex="1" connectable="0" parent="UjNVezTkZKRS0Rf-8lEK-7">
          <mxGeometry x="-0.0083" y="-2" relative="1" as="geometry">
            <mxPoint x="30" y="-1" as="offset" />
          </mxGeometry>
        </mxCell>
        <mxCell id="UjNVezTkZKRS0Rf-8lEK-13" style="edgeStyle=orthogonalEdgeStyle;rounded=0;orthogonalLoop=1;jettySize=auto;html=1;exitX=1;exitY=0.5;exitDx=0;exitDy=0;entryX=0.005;entryY=0.369;entryDx=0;entryDy=0;entryPerimeter=0;" edge="1" parent="WIyWlLk6GJQsqaUBKTNV-1" source="UjNVezTkZKRS0Rf-8lEK-1" target="UjNVezTkZKRS0Rf-8lEK-12">
          <mxGeometry relative="1" as="geometry">
            <mxPoint x="620" y="720" as="targetPoint" />
          </mxGeometry>
        </mxCell>
        <mxCell id="UjNVezTkZKRS0Rf-8lEK-14" value="Нет" style="edgeLabel;html=1;align=center;verticalAlign=middle;resizable=0;points=[];" vertex="1" connectable="0" parent="UjNVezTkZKRS0Rf-8lEK-13">
          <mxGeometry x="-0.5926" y="1" relative="1" as="geometry">
            <mxPoint x="9" y="-22" as="offset" />
          </mxGeometry>
        </mxCell>
        <mxCell id="UjNVezTkZKRS0Rf-8lEK-1" value="&lt;pre class=&quot;code-block&quot; data-entity-type=&quot;MessageEntityPre&quot; data-language=&quot;&quot; style=&quot;box-sizing: border-box; font-variant-numeric: normal; font-variant-east-asian: normal; font-variant-alternates: normal; font-variant-position: normal; font-kerning: auto; font-optical-sizing: auto; font-feature-settings: normal; font-variation-settings: normal; font-stretch: normal; font-size: 0.875rem; line-height: 1.25; font-family: var(--font-family-monospace); margin-top: 0px; margin-bottom: 0px; overflow: hidden; --color-scrollbar: var(--color-scrollbar-code); text-wrap: wrap; --color-type: #56b6c2; --color-keyword: #c678dd; --color-class: #e06c75; --color-string: #98c379; --color-template: #d19a66; --color-selector: #e06c75; --color-function: #61aeee; --color-comment: #5c6370; --color-section: #e06c75; --color-variable: #d19a66; --color-attribute: #d19a66; --color-link: #d19a66; --color-tag: #e06c75; text-align: start;&quot;&gt;Индекс &amp;gt; длина массива - 1?&lt;/pre&gt;" style="rhombus;whiteSpace=wrap;html=1;fontColor=#000000;" vertex="1" parent="WIyWlLk6GJQsqaUBKTNV-1">
          <mxGeometry x="260" y="604" width="280" height="150" as="geometry" />
        </mxCell>
        <mxCell id="UjNVezTkZKRS0Rf-8lEK-26" style="edgeStyle=orthogonalEdgeStyle;rounded=0;orthogonalLoop=1;jettySize=auto;html=1;exitX=0.5;exitY=1;exitDx=0;exitDy=0;entryX=0.5;entryY=0;entryDx=0;entryDy=0;" edge="1" parent="WIyWlLk6GJQsqaUBKTNV-1" source="UjNVezTkZKRS0Rf-8lEK-2" target="UjNVezTkZKRS0Rf-8lEK-24">
          <mxGeometry relative="1" as="geometry" />
        </mxCell>
        <mxCell id="UjNVezTkZKRS0Rf-8lEK-2" value="&lt;pre class=&quot;code-block&quot; data-entity-type=&quot;MessageEntityPre&quot; data-language=&quot;&quot; style=&quot;box-sizing: border-box; font-variant-numeric: normal; font-variant-east-asian: normal; font-variant-alternates: normal; font-variant-position: normal; font-kerning: auto; font-optical-sizing: auto; font-feature-settings: normal; font-variation-settings: normal; font-stretch: normal; font-size: 0.875rem; line-height: 1.25; font-family: var(--font-family-monospace); margin-top: 0px; margin-bottom: 0px; overflow: hidden; --color-scrollbar: var(--color-scrollbar-code); text-wrap: wrap; --color-type: light-dark(#56b6c2, #20727d); --color-keyword: light-dark(#c678dd, #a05db4); --color-class: light-dark(#e06c75, #c8656c); --color-string: light-dark(#98c379, #395e1e); --color-template: light-dark(#d19a66, #8b5b2f); --color-selector: light-dark(#e06c75, #c8656c); --color-function: light-dark(#61aeee, #2a6ca4); --color-comment: light-dark(#5c6370, #9399a4); --color-section: light-dark(#e06c75, #c8656c); --color-variable: light-dark(#d19a66, #8b5b2f); --color-attribute: light-dark(#d19a66, #8b5b2f); --color-link: light-dark(#d19a66, #8b5b2f); --color-tag: light-dark(#e06c75, #c8656c);&quot;&gt;&lt;font style=&quot;color: rgb(0, 0, 0);&quot;&gt;Инициализация массива изображений&lt;/font&gt;&lt;/pre&gt;" style="rounded=0;whiteSpace=wrap;html=1;align=center;" vertex="1" parent="WIyWlLk6GJQsqaUBKTNV-1">
          <mxGeometry x="300" y="100" width="200" height="60" as="geometry" />
        </mxCell>
        <mxCell id="UjNVezTkZKRS0Rf-8lEK-20" style="edgeStyle=orthogonalEdgeStyle;rounded=0;orthogonalLoop=1;jettySize=auto;html=1;exitX=0.5;exitY=1;exitDx=0;exitDy=0;entryX=0.5;entryY=0;entryDx=0;entryDy=0;" edge="1" parent="WIyWlLk6GJQsqaUBKTNV-1" source="UjNVezTkZKRS0Rf-8lEK-3" target="UjNVezTkZKRS0Rf-8lEK-5">
          <mxGeometry relative="1" as="geometry" />
        </mxCell>
        <mxCell id="UjNVezTkZKRS0Rf-8lEK-3" value="&lt;pre style=&quot;box-sizing: border-box; font-variant-numeric: normal; font-variant-east-asian: normal; font-variant-alternates: normal; font-variant-position: normal; font-kerning: auto; font-optical-sizing: auto; font-feature-settings: normal; font-variation-settings: normal; font-stretch: normal; font-size: 0.875rem; line-height: 1.25; font-family: var(--font-family-monospace); margin-top: 0px; margin-bottom: 0px; overflow: hidden; --color-scrollbar: var(--color-scrollbar-code); text-wrap: wrap; --color-type: light-dark(#56b6c2, #20727d); --color-keyword: light-dark(#c678dd, #a05db4); --color-class: light-dark(#e06c75, #c8656c); --color-string: light-dark(#98c379, #395e1e); --color-template: light-dark(#d19a66, #8b5b2f); --color-selector: light-dark(#e06c75, #c8656c); --color-function: light-dark(#61aeee, #2a6ca4); --color-comment: light-dark(#5c6370, #9399a4); --color-section: light-dark(#e06c75, #c8656c); --color-variable: light-dark(#d19a66, #8b5b2f); --color-attribute: light-dark(#d19a66, #8b5b2f); --color-link: light-dark(#d19a66, #8b5b2f); --color-tag: light-dark(#e06c75, #c8656c);&quot; data-language=&quot;&quot; data-entity-type=&quot;MessageEntityPre&quot; class=&quot;code-block&quot;&gt;&lt;pre class=&quot;code-block&quot; data-entity-type=&quot;MessageEntityPre&quot; data-language=&quot;&quot; style=&quot;box-sizing: border-box; font-variant-numeric: normal; font-variant-east-asian: normal; font-variant-alternates: normal; font-variant-position: normal; font-kerning: auto; font-optical-sizing: auto; font-feature-settings: normal; font-variation-settings: normal; font-stretch: normal; font-size: 0.875rem; line-height: 1.25; font-family: var(--font-family-monospace); margin-top: 0px; margin-bottom: 0px; overflow: hidden; --color-scrollbar: var(--color-scrollbar-code); text-wrap: wrap; --color-type: #56b6c2; --color-keyword: #c678dd; --color-class: #e06c75; --color-string: #98c379; --color-template: #d19a66; --color-selector: #e06c75; --color-function: #61aeee; --color-comment: #5c6370; --color-section: #e06c75; --color-variable: #d19a66; --color-attribute: #d19a66; --color-link: #d19a66; --color-tag: #e06c75;&quot;&gt;Показать текущее изображение&lt;/pre&gt;&lt;/pre&gt;" style="rounded=0;whiteSpace=wrap;html=1;align=center;fontColor=#000000;" vertex="1" parent="WIyWlLk6GJQsqaUBKTNV-1">
          <mxGeometry x="300" y="285" width="200" height="60" as="geometry" />
        </mxCell>
        <mxCell id="UjNVezTkZKRS0Rf-8lEK-19" style="edgeStyle=orthogonalEdgeStyle;rounded=0;orthogonalLoop=1;jettySize=auto;html=1;exitX=0.5;exitY=1;exitDx=0;exitDy=0;entryX=0.5;entryY=0;entryDx=0;entryDy=0;" edge="1" parent="WIyWlLk6GJQsqaUBKTNV-1" source="UjNVezTkZKRS0Rf-8lEK-5" target="UjNVezTkZKRS0Rf-8lEK-6">
          <mxGeometry relative="1" as="geometry" />
        </mxCell>
        <mxCell id="UjNVezTkZKRS0Rf-8lEK-5" value="&lt;pre class=&quot;code-block&quot; data-entity-type=&quot;MessageEntityPre&quot; data-language=&quot;&quot; style=&quot;box-sizing: border-box; font-variant-numeric: normal; font-variant-east-asian: normal; font-variant-alternates: normal; font-variant-position: normal; font-kerning: auto; font-optical-sizing: auto; font-feature-settings: normal; font-variation-settings: normal; font-stretch: normal; font-size: 0.875rem; line-height: 1.25; font-family: var(--font-family-monospace); margin-top: 0px; margin-bottom: 0px; overflow: hidden; --color-scrollbar: var(--color-scrollbar-code); text-wrap: wrap; --color-type: light-dark(#56b6c2, #20727d); --color-keyword: light-dark(#c678dd, #a05db4); --color-class: light-dark(#e06c75, #c8656c); --color-string: light-dark(#98c379, #395e1e); --color-template: light-dark(#d19a66, #8b5b2f); --color-selector: light-dark(#e06c75, #c8656c); --color-function: light-dark(#61aeee, #2a6ca4); --color-comment: light-dark(#5c6370, #9399a4); --color-section: light-dark(#e06c75, #c8656c); --color-variable: light-dark(#d19a66, #8b5b2f); --color-attribute: light-dark(#d19a66, #8b5b2f); --color-link: light-dark(#d19a66, #8b5b2f); --color-tag: light-dark(#e06c75, #c8656c);&quot;&gt;&lt;pre style=&quot;box-sizing: border-box; font-variant-numeric: normal; font-variant-east-asian: normal; font-variant-alternates: normal; font-variant-position: normal; font-kerning: auto; font-optical-sizing: auto; font-feature-settings: normal; font-variation-settings: normal; font-stretch: normal; font-size: 0.875rem; line-height: 1.25; font-family: var(--font-family-monospace); margin-top: 0px; margin-bottom: 0px; overflow: hidden; --color-scrollbar: var(--color-scrollbar-code); text-wrap: wrap; --color-type: #56b6c2; --color-keyword: #c678dd; --color-class: #e06c75; --color-string: #98c379; --color-template: #d19a66; --color-selector: #e06c75; --color-function: #61aeee; --color-comment: #5c6370; --color-section: #e06c75; --color-variable: #d19a66; --color-attribute: #d19a66; --color-link: #d19a66; --color-tag: #e06c75;&quot; data-language=&quot;&quot; data-entity-type=&quot;MessageEntityPre&quot; class=&quot;code-block&quot;&gt;Ждать 3 секунды&lt;/pre&gt;&lt;/pre&gt;" style="rounded=0;whiteSpace=wrap;html=1;align=center;fontColor=#000000;" vertex="1" parent="WIyWlLk6GJQsqaUBKTNV-1">
          <mxGeometry x="300" y="392" width="200" height="60" as="geometry" />
        </mxCell>
        <mxCell id="UjNVezTkZKRS0Rf-8lEK-18" style="edgeStyle=orthogonalEdgeStyle;rounded=0;orthogonalLoop=1;jettySize=auto;html=1;exitX=0.5;exitY=1;exitDx=0;exitDy=0;entryX=0.5;entryY=0;entryDx=0;entryDy=0;" edge="1" parent="WIyWlLk6GJQsqaUBKTNV-1" source="UjNVezTkZKRS0Rf-8lEK-6" target="UjNVezTkZKRS0Rf-8lEK-1">
          <mxGeometry relative="1" as="geometry" />
        </mxCell>
        <mxCell id="UjNVezTkZKRS0Rf-8lEK-6" value="&lt;pre style=&quot;box-sizing: border-box; font-variant-numeric: normal; font-variant-east-asian: normal; font-variant-alternates: normal; font-variant-position: normal; font-kerning: auto; font-optical-sizing: auto; font-feature-settings: normal; font-variation-settings: normal; font-stretch: normal; font-size: 0.875rem; line-height: 1.25; font-family: var(--font-family-monospace); margin-top: 0px; margin-bottom: 0px; overflow: hidden; --color-scrollbar: var(--color-scrollbar-code); text-wrap: wrap; --color-type: light-dark(#56b6c2, #20727d); --color-keyword: light-dark(#c678dd, #a05db4); --color-class: light-dark(#e06c75, #c8656c); --color-string: light-dark(#98c379, #395e1e); --color-template: light-dark(#d19a66, #8b5b2f); --color-selector: light-dark(#e06c75, #c8656c); --color-function: light-dark(#61aeee, #2a6ca4); --color-comment: light-dark(#5c6370, #9399a4); --color-section: light-dark(#e06c75, #c8656c); --color-variable: light-dark(#d19a66, #8b5b2f); --color-attribute: light-dark(#d19a66, #8b5b2f); --color-link: light-dark(#d19a66, #8b5b2f); --color-tag: light-dark(#e06c75, #c8656c);&quot; data-language=&quot;&quot; data-entity-type=&quot;MessageEntityPre&quot; class=&quot;code-block&quot;&gt;&lt;pre class=&quot;code-block&quot; data-entity-type=&quot;MessageEntityPre&quot; data-language=&quot;&quot; style=&quot;box-sizing: border-box; font-variant-numeric: normal; font-variant-east-asian: normal; font-variant-alternates: normal; font-variant-position: normal; font-kerning: auto; font-optical-sizing: auto; font-feature-settings: normal; font-variation-settings: normal; font-stretch: normal; font-size: 0.875rem; line-height: 1.25; font-family: var(--font-family-monospace); margin-top: 0px; margin-bottom: 0px; overflow: hidden; --color-scrollbar: var(--color-scrollbar-code); text-wrap: wrap; --color-type: light-dark(#56b6c2, #20727d); --color-keyword: light-dark(#c678dd, #a05db4); --color-class: light-dark(#e06c75, #c8656c); --color-string: light-dark(#98c379, #395e1e); --color-template: light-dark(#d19a66, #8b5b2f); --color-selector: light-dark(#e06c75, #c8656c); --color-function: light-dark(#61aeee, #2a6ca4); --color-comment: light-dark(#5c6370, #9399a4); --color-section: light-dark(#e06c75, #c8656c); --color-variable: light-dark(#d19a66, #8b5b2f); --color-attribute: light-dark(#d19a66, #8b5b2f); --color-link: light-dark(#d19a66, #8b5b2f); --color-tag: light-dark(#e06c75, #c8656c);&quot;&gt;&lt;pre class=&quot;code-block&quot; data-entity-type=&quot;MessageEntityPre&quot; data-language=&quot;&quot; style=&quot;box-sizing: border-box; font-variant-numeric: normal; font-variant-east-asian: normal; font-variant-alternates: normal; font-variant-position: normal; font-kerning: auto; font-optical-sizing: auto; font-feature-settings: normal; font-variation-settings: normal; font-stretch: normal; font-size: 0.875rem; line-height: 1.25; font-family: var(--font-family-monospace); margin-top: 0px; margin-bottom: 0px; overflow: hidden; --color-scrollbar: var(--color-scrollbar-code); text-wrap: wrap; --color-type: #56b6c2; --color-keyword: #c678dd; --color-class: #e06c75; --color-string: #98c379; --color-template: #d19a66; --color-selector: #e06c75; --color-function: #61aeee; --color-comment: #5c6370; --color-section: #e06c75; --color-variable: #d19a66; --color-attribute: #d19a66; --color-link: #d19a66; --color-tag: #e06c75; text-align: start;&quot;&gt;Увеличить индекс на 1 &lt;/pre&gt;&lt;/pre&gt;&lt;/pre&gt;" style="rounded=0;whiteSpace=wrap;html=1;align=center;fontColor=#000000;" vertex="1" parent="WIyWlLk6GJQsqaUBKTNV-1">
          <mxGeometry x="300" y="497" width="200" height="60" as="geometry" />
        </mxCell>
        <mxCell id="UjNVezTkZKRS0Rf-8lEK-17" style="edgeStyle=orthogonalEdgeStyle;rounded=0;orthogonalLoop=1;jettySize=auto;html=1;exitX=0.5;exitY=1;exitDx=0;exitDy=0;entryX=0.5;entryY=0;entryDx=0;entryDy=0;" edge="1" parent="WIyWlLk6GJQsqaUBKTNV-1" source="UjNVezTkZKRS0Rf-8lEK-10" target="UjNVezTkZKRS0Rf-8lEK-11">
          <mxGeometry relative="1" as="geometry" />
        </mxCell>
        <mxCell id="UjNVezTkZKRS0Rf-8lEK-10" value="&lt;pre style=&quot;box-sizing: border-box; font-variant-numeric: normal; font-variant-east-asian: normal; font-variant-alternates: normal; font-variant-position: normal; font-kerning: auto; font-optical-sizing: auto; font-feature-settings: normal; font-variation-settings: normal; font-stretch: normal; font-size: 0.875rem; line-height: 1.25; font-family: var(--font-family-monospace); margin-top: 0px; margin-bottom: 0px; overflow: hidden; --color-scrollbar: var(--color-scrollbar-code); text-wrap: wrap; --color-type: light-dark(#56b6c2, #20727d); --color-keyword: light-dark(#c678dd, #a05db4); --color-class: light-dark(#e06c75, #c8656c); --color-string: light-dark(#98c379, #395e1e); --color-template: light-dark(#d19a66, #8b5b2f); --color-selector: light-dark(#e06c75, #c8656c); --color-function: light-dark(#61aeee, #2a6ca4); --color-comment: light-dark(#5c6370, #9399a4); --color-section: light-dark(#e06c75, #c8656c); --color-variable: light-dark(#d19a66, #8b5b2f); --color-attribute: light-dark(#d19a66, #8b5b2f); --color-link: light-dark(#d19a66, #8b5b2f); --color-tag: light-dark(#e06c75, #c8656c);&quot; data-language=&quot;&quot; data-entity-type=&quot;MessageEntityPre&quot; class=&quot;code-block&quot;&gt;&lt;pre class=&quot;code-block&quot; data-entity-type=&quot;MessageEntityPre&quot; data-language=&quot;&quot; style=&quot;box-sizing: border-box; font-variant-numeric: normal; font-variant-east-asian: normal; font-variant-alternates: normal; font-variant-position: normal; font-kerning: auto; font-optical-sizing: auto; font-feature-settings: normal; font-variation-settings: normal; font-stretch: normal; font-size: 0.875rem; line-height: 1.25; font-family: var(--font-family-monospace); margin-top: 0px; margin-bottom: 0px; overflow: hidden; --color-scrollbar: var(--color-scrollbar-code); text-wrap: wrap; --color-type: light-dark(#56b6c2, #20727d); --color-keyword: light-dark(#c678dd, #a05db4); --color-class: light-dark(#e06c75, #c8656c); --color-string: light-dark(#98c379, #395e1e); --color-template: light-dark(#d19a66, #8b5b2f); --color-selector: light-dark(#e06c75, #c8656c); --color-function: light-dark(#61aeee, #2a6ca4); --color-comment: light-dark(#5c6370, #9399a4); --color-section: light-dark(#e06c75, #c8656c); --color-variable: light-dark(#d19a66, #8b5b2f); --color-attribute: light-dark(#d19a66, #8b5b2f); --color-link: light-dark(#d19a66, #8b5b2f); --color-tag: light-dark(#e06c75, #c8656c);&quot;&gt;&lt;pre class=&quot;code-block&quot; data-entity-type=&quot;MessageEntityPre&quot; data-language=&quot;&quot; style=&quot;box-sizing: border-box; font-variant-numeric: normal; font-variant-east-asian: normal; font-variant-alternates: normal; font-variant-position: normal; font-kerning: auto; font-optical-sizing: auto; font-feature-settings: normal; font-variation-settings: normal; font-stretch: normal; font-size: 0.875rem; line-height: 1.25; font-family: var(--font-family-monospace); margin-top: 0px; margin-bottom: 0px; overflow: hidden; --color-scrollbar: var(--color-scrollbar-code); text-wrap: wrap; --color-type: light-dark(#56b6c2, #20727d); --color-keyword: light-dark(#c678dd, #a05db4); --color-class: light-dark(#e06c75, #c8656c); --color-string: light-dark(#98c379, #395e1e); --color-template: light-dark(#d19a66, #8b5b2f); --color-selector: light-dark(#e06c75, #c8656c); --color-function: light-dark(#61aeee, #2a6ca4); --color-comment: light-dark(#5c6370, #9399a4); --color-section: light-dark(#e06c75, #c8656c); --color-variable: light-dark(#d19a66, #8b5b2f); --color-attribute: light-dark(#d19a66, #8b5b2f); --color-link: light-dark(#d19a66, #8b5b2f); --color-tag: light-dark(#e06c75, #c8656c); text-align: start;&quot;&gt;Увеличить индекс на 0 &lt;/pre&gt;&lt;/pre&gt;&lt;/pre&gt;" style="rounded=0;whiteSpace=wrap;html=1;align=center;fontColor=#000000;" vertex="1" parent="WIyWlLk6GJQsqaUBKTNV-1">
          <mxGeometry x="300" y="800" width="200" height="60" as="geometry" />
        </mxCell>
        <mxCell id="UjNVezTkZKRS0Rf-8lEK-11" value="&lt;pre style=&quot;box-sizing: border-box; font-variant-numeric: normal; font-variant-east-asian: normal; font-variant-alternates: normal; font-variant-position: normal; font-kerning: auto; font-optical-sizing: auto; font-feature-settings: normal; font-variation-settings: normal; font-stretch: normal; font-size: 0.875rem; line-height: 1.25; font-family: var(--font-family-monospace); margin-top: 0px; margin-bottom: 0px; overflow: hidden; --color-scrollbar: var(--color-scrollbar-code); text-wrap: wrap; --color-type: light-dark(#56b6c2, #20727d); --color-keyword: light-dark(#c678dd, #a05db4); --color-class: light-dark(#e06c75, #c8656c); --color-string: light-dark(#98c379, #395e1e); --color-template: light-dark(#d19a66, #8b5b2f); --color-selector: light-dark(#e06c75, #c8656c); --color-function: light-dark(#61aeee, #2a6ca4); --color-comment: light-dark(#5c6370, #9399a4); --color-section: light-dark(#e06c75, #c8656c); --color-variable: light-dark(#d19a66, #8b5b2f); --color-attribute: light-dark(#d19a66, #8b5b2f); --color-link: light-dark(#d19a66, #8b5b2f); --color-tag: light-dark(#e06c75, #c8656c);&quot; data-language=&quot;&quot; data-entity-type=&quot;MessageEntityPre&quot; class=&quot;code-block&quot;&gt;&lt;pre class=&quot;code-block&quot; data-entity-type=&quot;MessageEntityPre&quot; data-language=&quot;&quot; style=&quot;box-sizing: border-box; font-variant-numeric: normal; font-variant-east-asian: normal; font-variant-alternates: normal; font-variant-position: normal; font-kerning: auto; font-optical-sizing: auto; font-feature-settings: normal; font-variation-settings: normal; font-stretch: normal; font-size: 0.875rem; line-height: 1.25; font-family: var(--font-family-monospace); margin-top: 0px; margin-bottom: 0px; overflow: hidden; --color-scrollbar: var(--color-scrollbar-code); text-wrap: wrap; --color-type: light-dark(#56b6c2, #20727d); --color-keyword: light-dark(#c678dd, #a05db4); --color-class: light-dark(#e06c75, #c8656c); --color-string: light-dark(#98c379, #395e1e); --color-template: light-dark(#d19a66, #8b5b2f); --color-selector: light-dark(#e06c75, #c8656c); --color-function: light-dark(#61aeee, #2a6ca4); --color-comment: light-dark(#5c6370, #9399a4); --color-section: light-dark(#e06c75, #c8656c); --color-variable: light-dark(#d19a66, #8b5b2f); --color-attribute: light-dark(#d19a66, #8b5b2f); --color-link: light-dark(#d19a66, #8b5b2f); --color-tag: light-dark(#e06c75, #c8656c);&quot;&gt;&lt;pre class=&quot;code-block&quot; data-entity-type=&quot;MessageEntityPre&quot; data-language=&quot;&quot; style=&quot;box-sizing: border-box; font-variant-numeric: normal; font-variant-east-asian: normal; font-variant-alternates: normal; font-variant-position: normal; font-kerning: auto; font-optical-sizing: auto; font-feature-settings: normal; font-variation-settings: normal; font-stretch: normal; font-size: 0.875rem; line-height: 1.25; font-family: var(--font-family-monospace); margin-top: 0px; margin-bottom: 0px; overflow: hidden; --color-scrollbar: var(--color-scrollbar-code); text-wrap: wrap; --color-type: light-dark(#56b6c2, #20727d); --color-keyword: light-dark(#c678dd, #a05db4); --color-class: light-dark(#e06c75, #c8656c); --color-string: light-dark(#98c379, #395e1e); --color-template: light-dark(#d19a66, #8b5b2f); --color-selector: light-dark(#e06c75, #c8656c); --color-function: light-dark(#61aeee, #2a6ca4); --color-comment: light-dark(#5c6370, #9399a4); --color-section: light-dark(#e06c75, #c8656c); --color-variable: light-dark(#d19a66, #8b5b2f); --color-attribute: light-dark(#d19a66, #8b5b2f); --color-link: light-dark(#d19a66, #8b5b2f); --color-tag: light-dark(#e06c75, #c8656c); text-align: start;&quot;&gt;Конец&lt;/pre&gt;&lt;/pre&gt;&lt;/pre&gt;" style="rounded=0;whiteSpace=wrap;html=1;align=center;fontColor=#000000;" vertex="1" parent="WIyWlLk6GJQsqaUBKTNV-1">
          <mxGeometry x="300" y="898" width="200" height="60" as="geometry" />
        </mxCell>
        <mxCell id="UjNVezTkZKRS0Rf-8lEK-16" style="edgeStyle=orthogonalEdgeStyle;rounded=0;orthogonalLoop=1;jettySize=auto;html=1;exitX=1;exitY=0.5;exitDx=0;exitDy=0;entryX=1;entryY=0.5;entryDx=0;entryDy=0;" edge="1" parent="WIyWlLk6GJQsqaUBKTNV-1" source="UjNVezTkZKRS0Rf-8lEK-12" target="UjNVezTkZKRS0Rf-8lEK-5">
          <mxGeometry relative="1" as="geometry">
            <mxPoint x="790" y="790.1666666666667" as="targetPoint" />
          </mxGeometry>
        </mxCell>
        <mxCell id="UjNVezTkZKRS0Rf-8lEK-12" value="&lt;pre style=&quot;box-sizing: border-box; font-variant-numeric: normal; font-variant-east-asian: normal; font-variant-alternates: normal; font-variant-position: normal; font-kerning: auto; font-optical-sizing: auto; font-feature-settings: normal; font-variation-settings: normal; font-stretch: normal; font-size: 0.875rem; line-height: 1.25; font-family: var(--font-family-monospace); margin-top: 0px; margin-bottom: 0px; overflow: hidden; --color-scrollbar: var(--color-scrollbar-code); text-wrap: wrap; --color-type: light-dark(#56b6c2, #20727d); --color-keyword: light-dark(#c678dd, #a05db4); --color-class: light-dark(#e06c75, #c8656c); --color-string: light-dark(#98c379, #395e1e); --color-template: light-dark(#d19a66, #8b5b2f); --color-selector: light-dark(#e06c75, #c8656c); --color-function: light-dark(#61aeee, #2a6ca4); --color-comment: light-dark(#5c6370, #9399a4); --color-section: light-dark(#e06c75, #c8656c); --color-variable: light-dark(#d19a66, #8b5b2f); --color-attribute: light-dark(#d19a66, #8b5b2f); --color-link: light-dark(#d19a66, #8b5b2f); --color-tag: light-dark(#e06c75, #c8656c);&quot; data-language=&quot;&quot; data-entity-type=&quot;MessageEntityPre&quot; class=&quot;code-block&quot;&gt;&lt;pre class=&quot;code-block&quot; data-entity-type=&quot;MessageEntityPre&quot; data-language=&quot;&quot; style=&quot;box-sizing: border-box; font-variant-numeric: normal; font-variant-east-asian: normal; font-variant-alternates: normal; font-variant-position: normal; font-kerning: auto; font-optical-sizing: auto; font-feature-settings: normal; font-variation-settings: normal; font-stretch: normal; font-size: 0.875rem; line-height: 1.25; font-family: var(--font-family-monospace); margin-top: 0px; margin-bottom: 0px; overflow: hidden; --color-scrollbar: var(--color-scrollbar-code); text-wrap: wrap; --color-type: light-dark(#56b6c2, #20727d); --color-keyword: light-dark(#c678dd, #a05db4); --color-class: light-dark(#e06c75, #c8656c); --color-string: light-dark(#98c379, #395e1e); --color-template: light-dark(#d19a66, #8b5b2f); --color-selector: light-dark(#e06c75, #c8656c); --color-function: light-dark(#61aeee, #2a6ca4); --color-comment: light-dark(#5c6370, #9399a4); --color-section: light-dark(#e06c75, #c8656c); --color-variable: light-dark(#d19a66, #8b5b2f); --color-attribute: light-dark(#d19a66, #8b5b2f); --color-link: light-dark(#d19a66, #8b5b2f); --color-tag: light-dark(#e06c75, #c8656c);&quot;&gt;&lt;pre class=&quot;code-block&quot; data-entity-type=&quot;MessageEntityPre&quot; data-language=&quot;&quot; style=&quot;box-sizing: border-box; font-variant-numeric: normal; font-variant-east-asian: normal; font-variant-alternates: normal; font-variant-position: normal; font-kerning: auto; font-optical-sizing: auto; font-feature-settings: normal; font-variation-settings: normal; font-stretch: normal; font-size: 0.875rem; line-height: 1.25; font-family: var(--font-family-monospace); margin-top: 0px; margin-bottom: 0px; overflow: hidden; --color-scrollbar: var(--color-scrollbar-code); text-wrap: wrap; --color-type: light-dark(#56b6c2, #20727d); --color-keyword: light-dark(#c678dd, #a05db4); --color-class: light-dark(#e06c75, #c8656c); --color-string: light-dark(#98c379, #395e1e); --color-template: light-dark(#d19a66, #8b5b2f); --color-selector: light-dark(#e06c75, #c8656c); --color-function: light-dark(#61aeee, #2a6ca4); --color-comment: light-dark(#5c6370, #9399a4); --color-section: light-dark(#e06c75, #c8656c); --color-variable: light-dark(#d19a66, #8b5b2f); --color-attribute: light-dark(#d19a66, #8b5b2f); --color-link: light-dark(#d19a66, #8b5b2f); --color-tag: light-dark(#e06c75, #c8656c);&quot;&gt;&lt;span style=&quot;font-family: var(--font-family-monospace); font-size: 0.875rem; white-space-collapse: collapse; background-color: transparent;&quot;&gt;Показать следующее изображение&lt;/span&gt; &lt;/pre&gt;&lt;/pre&gt;&lt;/pre&gt;" style="rounded=0;whiteSpace=wrap;html=1;align=center;fontColor=#000000;" vertex="1" parent="WIyWlLk6GJQsqaUBKTNV-1">
          <mxGeometry x="588" y="657" width="200" height="60" as="geometry" />
        </mxCell>
        <mxCell id="UjNVezTkZKRS0Rf-8lEK-27" style="edgeStyle=orthogonalEdgeStyle;rounded=0;orthogonalLoop=1;jettySize=auto;html=1;exitX=0.5;exitY=1;exitDx=0;exitDy=0;entryX=0.5;entryY=0;entryDx=0;entryDy=0;" edge="1" parent="WIyWlLk6GJQsqaUBKTNV-1" source="UjNVezTkZKRS0Rf-8lEK-24" target="UjNVezTkZKRS0Rf-8lEK-3">
          <mxGeometry relative="1" as="geometry" />
        </mxCell>
        <mxCell id="UjNVezTkZKRS0Rf-8lEK-24" value="&lt;pre class=&quot;code-block&quot; data-entity-type=&quot;MessageEntityPre&quot; data-language=&quot;&quot; style=&quot;box-sizing: border-box; font-variant-numeric: normal; font-variant-east-asian: normal; font-variant-alternates: normal; font-variant-position: normal; font-kerning: auto; font-optical-sizing: auto; font-feature-settings: normal; font-variation-settings: normal; font-stretch: normal; font-size: 0.875rem; line-height: 1.25; font-family: var(--font-family-monospace); margin-top: 0px; margin-bottom: 0px; overflow: hidden; --color-scrollbar: var(--color-scrollbar-code); text-wrap: wrap; --color-type: light-dark(#56b6c2, #20727d); --color-keyword: light-dark(#c678dd, #a05db4); --color-class: light-dark(#e06c75, #c8656c); --color-string: light-dark(#98c379, #395e1e); --color-template: light-dark(#d19a66, #8b5b2f); --color-selector: light-dark(#e06c75, #c8656c); --color-function: light-dark(#61aeee, #2a6ca4); --color-comment: light-dark(#5c6370, #9399a4); --color-section: light-dark(#e06c75, #c8656c); --color-variable: light-dark(#d19a66, #8b5b2f); --color-attribute: light-dark(#d19a66, #8b5b2f); --color-link: light-dark(#d19a66, #8b5b2f); --color-tag: light-dark(#e06c75, #c8656c);&quot;&gt;&lt;pre style=&quot;box-sizing: border-box; font-variant-numeric: normal; font-variant-east-asian: normal; font-variant-alternates: normal; font-variant-position: normal; font-kerning: auto; font-optical-sizing: auto; font-feature-settings: normal; font-variation-settings: normal; font-stretch: normal; font-size: 0.875rem; line-height: 1.25; font-family: var(--font-family-monospace); margin-top: 0px; margin-bottom: 0px; overflow: hidden; --color-scrollbar: var(--color-scrollbar-code); text-wrap: wrap; --color-type: #56b6c2; --color-keyword: #c678dd; --color-class: #e06c75; --color-string: #98c379; --color-template: #d19a66; --color-selector: #e06c75; --color-function: #61aeee; --color-comment: #5c6370; --color-section: #e06c75; --color-variable: #d19a66; --color-attribute: #d19a66; --color-link: #d19a66; --color-tag: #e06c75;&quot; data-language=&quot;&quot; data-entity-type=&quot;MessageEntityPre&quot; class=&quot;code-block&quot;&gt;Установка текущего индекса на 0&lt;/pre&gt;&lt;/pre&gt;" style="rounded=0;whiteSpace=wrap;html=1;align=center;fontColor=#000000;" vertex="1" parent="WIyWlLk6GJQsqaUBKTNV-1">
          <mxGeometry x="300" y="191" width="200" height="60" as="geometry" />
        </mxCell>
      </root>
    </mxGraphModel>
  </diagram>
</mxfile>
